<svg width="32" height="32" viewBox="0 0 32 32" fill="none" xmlns="http://www.w3.org/2000/svg">
<path d="M24.9742 21.5805C25.1081 21.8158 25.0503 22.0189 24.9742 22.1493C24.898 22.2796 24.7531 22.4318 24.4851 22.4318H21.6847V19.5735L16.3594 24.8989L18.8264 27.3659V27.3696H18.8301L21.6884 30.2279V27.3696H24.4888C26.4777 27.3696 28.2563 26.3407 29.2526 24.62C30.2489 22.8993 30.2489 20.8415 29.2526 19.1172L26.6224 14.5635L22.3476 17.0305L24.9742 21.5805Z" fill="#00C108"/>
<path d="M3.14057 19.1134C2.1479 20.8342 2.1479 22.8919 3.14057 24.6163C4.13324 26.337 5.91574 27.3658 7.9044 27.3658H13.5704V22.4318H7.90468C7.63672 22.4318 7.48813 22.2759 7.41566 22.1492C7.33954 22.0189 7.27802 21.8158 7.41566 21.5804L8.94087 18.9395L11.2267 20.2583L9.27769 12.9806L2 14.9296L4.66645 16.4691L3.14057 19.1134Z" fill="#00C108"/>
<path d="M15.7044 7.21993C15.8384 6.98455 16.0449 6.93736 16.1935 6.93736C16.3421 6.93736 16.5485 6.98455 16.6825 7.21993L18.1715 9.80296L15.8348 11.1506L23.1125 13.0997L25.0615 5.82199L22.4459 7.33261L20.9569 4.74957C19.9642 3.02884 18.1818 2 16.1931 2C14.2042 2 12.4219 3.02891 11.4293 4.74957L8.80273 9.30328L13.0739 11.7739L15.7044 7.21993Z" fill="#00C108"/>
</svg>
